<?xml version="1.0" encoding="UTF-8" standalone="no"?>
<!DOCTYPE svg PUBLIC "-//W3C//DTD SVG 1.1//EN"
 "http://www.w3.org/Graphics/SVG/1.1/DTD/svg11.dtd">
<!-- Generated by graphviz version 14.1.4 (20260321.0153)
 -->
<!-- Title: JobPortal Pages: 1 -->
<svg width="658pt" height="371pt"
 viewBox="0.00 0.00 658.00 371.00" xmlns="http://www.w3.org/2000/svg" xmlns:xlink="http://www.w3.org/1999/xlink">
<g id="graph0" class="graph" transform="scale(1 1) rotate(0) translate(4 367)">
<title>JobPortal</title>
<polygon fill="white" stroke="none" points="-4,4 -4,-367 653.5,-367 653.5,4 -4,4"/>
<g id="clust1" class="cluster">
<title>cluster_routes</title>
<polygon fill="none" stroke="black" points="8,-8 8,-355 152.5,-355 152.5,-8 8,-8"/>
<text xml:space="preserve" text-anchor="middle" x="80.25" y="-337.7" font-family="Times New Roman,serif" font-size="14.00">Routes</text>
</g>
<g id="clust2" class="cluster">
<title>cluster_controllers</title>
<polygon fill="none" stroke="black" points="172.5,-8 172.5,-301 341,-301 341,-8 172.5,-8"/>
<text xml:space="preserve" text-anchor="middle" x="256.75" y="-283.7" font-family="Times New Roman,serif" font-size="14.00">Controllers</text>
</g>
<g id="clust3" class="cluster">
<title>cluster_services</title>
<polygon fill="none" stroke="black" points="361,-8 361,-355 517.5,-355 517.5,-8 361,-8"/>
<text xml:space="preserve" text-anchor="middle" x="439.25" y="-337.7" font-family="Times New Roman,serif" font-size="14.00">Services</text>
</g>
<g id="clust4" class="cluster">
<title>cluster_db</title>
<polygon fill="none" stroke="black" points="537.5,-143 537.5,-274 641.5,-274 641.5,-143 537.5,-143"/>
<text xml:space="preserve" text-anchor="middle" x="589.5" y="-256.7" font-family="Times New Roman,serif" font-size="14.00">Database / Lib</text>
</g>
<!-- auth.routes.js -->
<g id="node1" class="node">
<title>auth.routes.js</title>
<path fill="none" stroke="black" d="M116.75,-52C116.75,-52 43.75,-52 43.75,-52 37.75,-52 31.75,-46 31.75,-40 31.75,-40 31.75,-28 31.75,-28 31.75,-22 37.75,-16 43.75,-16 43.75,-16 116.75,-16 116.75,-16 122.75,-16 128.75,-22 128.75,-28 128.75,-28 128.75,-40 128.75,-40 128.75,-46 122.75,-52 116.75,-52"/>
<text xml:space="preserve" text-anchor="middle" x="80.25" y="-28.57" font-family="Arial" font-size="14.00">auth.routes.js</text>
</g>
<!-- auth.controller.js -->
<g id="node7" class="node">
<title>auth.controller.js</title>
<path fill="none" stroke="black" d="M301.88,-52C301.88,-52 211.62,-52 211.62,-52 205.62,-52 199.62,-46 199.62,-40 199.62,-40 199.62,-28 199.62,-28 199.62,-22 205.62,-16 211.62,-16 211.62,-16 301.88,-16 301.88,-16 307.88,-16 313.88,-22 313.88,-28 313.88,-28 313.88,-40 313.88,-40 313.88,-46 307.88,-52 301.88,-52"/>
<text xml:space="preserve" text-anchor="middle" x="256.75" y="-28.57" font-family="Arial" font-size="14.00">auth.controller.js</text>
</g>
<!-- auth.routes.js&#45;&gt;auth.controller.js -->
<g id="edge1" class="edge">
<title>auth.routes.js&#45;&gt;auth.controller.js</title>
<path fill="none" stroke="black" d="M128.93,-34C147.07,-34 168.1,-34 187.76,-34"/>
<polygon fill="black" stroke="black" points="187.63,-37.5 197.63,-34 187.63,-30.5 187.63,-37.5"/>
</g>
<!-- job.routes.js -->
<g id="node2" class="node">
<title>job.routes.js</title>
<path fill="none" stroke="black" d="M112.62,-106C112.62,-106 47.88,-106 47.88,-106 41.88,-106 35.88,-100 35.88,-94 35.88,-94 35.88,-82 35.88,-82 35.88,-76 41.88,-70 47.88,-70 47.88,-70 112.62,-70 112.62,-70 118.62,-70 124.62,-76 124.62,-82 124.62,-82 124.62,-94 124.62,-94 124.62,-100 118.62,-106 112.62,-106"/>
<text xml:space="preserve" text-anchor="middle" x="80.25" y="-82.58" font-family="Arial" font-size="14.00">job.routes.js</text>
</g>
<!-- job.controller.js -->
<g id="node8" class="node">
<title>job.controller.js</title>
<path fill="none" stroke="black" d="M297.75,-106C297.75,-106 215.75,-106 215.75,-106 209.75,-106 203.75,-100 203.75,-94 203.75,-94 203.75,-82 203.75,-82 203.75,-76 209.75,-70 215.75,-70 215.75,-70 297.75,-70 297.75,-70 303.75,-70 309.75,-76 309.75,-82 309.75,-82 309.75,-94 309.75,-94 309.75,-100 303.75,-106 297.75,-106"/>
<text xml:space="preserve" text-anchor="middle" x="256.75" y="-82.58" font-family="Arial" font-size="14.00">job.controller.js</text>
</g>
<!-- job.routes.js&#45;&gt;job.controller.js -->
<g id="edge2" class="edge">
<title>job.routes.js&#45;&gt;job.controller.js</title>
<path fill="none" stroke="black" d="M124.83,-88C145.12,-88 169.65,-88 191.97,-88"/>
<polygon fill="black" stroke="black" points="191.89,-91.5 201.89,-88 191.89,-84.5 191.89,-91.5"/>
</g>
<!-- user.routes.js -->
<g id="node3" class="node">
<title>user.routes.js</title>
<path fill="none" stroke="black" d="M116.38,-160C116.38,-160 44.12,-160 44.12,-160 38.12,-160 32.12,-154 32.12,-148 32.12,-148 32.12,-136 32.12,-136 32.12,-130 38.12,-124 44.12,-124 44.12,-124 116.38,-124 116.38,-124 122.38,-124 128.38,-130 128.38,-136 128.38,-136 128.38,-148 128.38,-148 128.38,-154 122.38,-160 116.38,-160"/>
<text xml:space="preserve" text-anchor="middle" x="80.25" y="-136.57" font-family="Arial" font-size="14.00">user.routes.js</text>
</g>
<!-- user.controller.js -->
<g id="node9" class="node">
<title>user.controller.js</title>
<path fill="none" stroke="black" d="M301.5,-160C301.5,-160 212,-160 212,-160 206,-160 200,-154 200,-148 200,-148 200,-136 200,-136 200,-130 206,-124 212,-124 212,-124 301.5,-124 301.5,-124 307.5,-124 313.5,-130 313.5,-136 313.5,-136 313.5,-148 313.5,-148 313.5,-154 307.5,-160 301.5,-160"/>
<text xml:space="preserve" text-anchor="middle" x="256.75" y="-136.57" font-family="Arial" font-size="14.00">user.controller.js</text>
</g>
<!-- user.routes.js&#45;&gt;user.controller.js -->
<g id="edge3" class="edge">
<title>user.routes.js&#45;&gt;user.controller.js</title>
<path fill="none" stroke="black" d="M128.47,-142C146.95,-142 168.49,-142 188.54,-142"/>
<polygon fill="black" stroke="black" points="188.3,-145.5 198.3,-142 188.3,-138.5 188.3,-145.5"/>
</g>
<!-- company.routes.js -->
<g id="node4" class="node">
<title>company.routes.js</title>
<path fill="none" stroke="black" d="M131,-214C131,-214 29.5,-214 29.5,-214 23.5,-214 17.5,-208 17.5,-202 17.5,-202 17.5,-190 17.5,-190 17.5,-184 23.5,-178 29.5,-178 29.5,-178 131,-178 131,-178 137,-178 143,-184 143,-190 143,-190 143,-202 143,-202 143,-208 137,-214 131,-214"/>
<text xml:space="preserve" text-anchor="middle" x="80.25" y="-190.57" font-family="Arial" font-size="14.00">company.routes.js</text>
</g>
<!-- company.controller.js -->
<g id="node10" class="node">
<title>company.controller.js</title>
<path fill="none" stroke="black" d="M316.12,-214C316.12,-214 197.38,-214 197.38,-214 191.38,-214 185.38,-208 185.38,-202 185.38,-202 185.38,-190 185.38,-190 185.38,-184 191.38,-178 197.38,-178 197.38,-178 316.12,-178 316.12,-178 322.12,-178 328.12,-184 328.12,-190 328.12,-190 328.12,-202 328.12,-202 328.12,-208 322.12,-214 316.12,-214"/>
<text xml:space="preserve" text-anchor="middle" x="256.75" y="-190.57" font-family="Arial" font-size="14.00">company.controller.js</text>
</g>
<!-- company.routes.js&#45;&gt;company.controller.js -->
<g id="edge4" class="edge">
<title>company.routes.js&#45;&gt;company.controller.js</title>
<path fill="none" stroke="black" d="M143.26,-196C153.09,-196 163.37,-196 173.57,-196"/>
<polygon fill="black" stroke="black" points="173.5,-199.5 183.5,-196 173.5,-192.5 173.5,-199.5"/>
</g>
<!-- application.route.js -->
<g id="node5" class="node">
<title>application.route.js</title>
<path fill="none" stroke="black" d="M132.5,-268C132.5,-268 28,-268 28,-268 22,-268 16,-262 16,-256 16,-256 16,-244 16,-244 16,-238 22,-232 28,-232 28,-232 132.5,-232 132.5,-232 138.5,-232 144.5,-238 144.5,-244 144.5,-244 144.5,-256 144.5,-256 144.5,-262 138.5,-268 132.5,-268"/>
<text xml:space="preserve" text-anchor="middle" x="80.25" y="-244.57" font-family="Arial" font-size="14.00">application.route.js</text>
</g>
<!-- application.controller.js -->
<g id="node11" class="node">
<title>application.controller.js</title>
<path fill="none" stroke="black" d="M321,-268C321,-268 192.5,-268 192.5,-268 186.5,-268 180.5,-262 180.5,-256 180.5,-256 180.5,-244 180.5,-244 180.5,-238 186.5,-232 192.5,-232 192.5,-232 321,-232 321,-232 327,-232 333,-238 333,-244 333,-244 333,-256 333,-256 333,-262 327,-268 321,-268"/>
<text xml:space="preserve" text-anchor="middle" x="256.75" y="-244.57" font-family="Arial" font-size="14.00">application.controller.js</text>
</g>
<!-- application.route.js&#45;&gt;application.controller.js -->
<g id="edge5" class="edge">
<title>application.route.js&#45;&gt;application.controller.js</title>
<path fill="none" stroke="black" d="M144.74,-250C152.56,-250 160.65,-250 168.74,-250"/>
<polygon fill="black" stroke="black" points="168.63,-253.5 178.63,-250 168.63,-246.5 168.63,-253.5"/>
</g>
<!-- github.routes.js -->
<g id="node6" class="node">
<title>github.routes.js</title>
<path fill="none" stroke="black" d="M122,-322C122,-322 38.5,-322 38.5,-322 32.5,-322 26.5,-316 26.5,-310 26.5,-310 26.5,-298 26.5,-298 26.5,-292 32.5,-286 38.5,-286 38.5,-286 122,-286 122,-286 128,-286 134,-292 134,-298 134,-298 134,-310 134,-310 134,-316 128,-322 122,-322"/>
<text xml:space="preserve" text-anchor="middle" x="80.25" y="-298.57" font-family="Arial" font-size="14.00">github.routes.js</text>
</g>
<!-- auth.service.js -->
<g id="node12" class="node">
<title>auth.service.js</title>
<path fill="none" stroke="black" d="M478.38,-52C478.38,-52 400.12,-52 400.12,-52 394.12,-52 388.12,-46 388.12,-40 388.12,-40 388.12,-28 388.12,-28 388.12,-22 394.12,-16 400.12,-16 400.12,-16 478.38,-16 478.38,-16 484.38,-16 490.38,-22 490.38,-28 490.38,-28 490.38,-40 490.38,-40 490.38,-46 484.38,-52 478.38,-52"/>
<text xml:space="preserve" text-anchor="middle" x="439.25" y="-28.57" font-family="Arial" font-size="14.00">auth.service.js</text>
</g>
<!-- auth.controller.js&#45;&gt;auth.service.js -->
<g id="edge6" class="edge">
<title>auth.controller.js&#45;&gt;auth.service.js</title>
<path fill="none" stroke="black" d="M314.37,-34C334.08,-34 356.28,-34 376.4,-34"/>
<polygon fill="black" stroke="black" points="376.13,-37.5 386.13,-34 376.13,-30.5 376.13,-37.5"/>
</g>
<!-- job.service.js -->
<g id="node13" class="node">
<title>job.service.js</title>
<path fill="none" stroke="black" d="M474.25,-106C474.25,-106 404.25,-106 404.25,-106 398.25,-106 392.25,-100 392.25,-94 392.25,-94 392.25,-82 392.25,-82 392.25,-76 398.25,-70 404.25,-70 404.25,-70 474.25,-70 474.25,-70 480.25,-70 486.25,-76 486.25,-82 486.25,-82 486.25,-94 486.25,-94 486.25,-100 480.25,-106 474.25,-106"/>
<text xml:space="preserve" text-anchor="middle" x="439.25" y="-82.58" font-family="Arial" font-size="14.00">job.service.js</text>
</g>
<!-- job.controller.js&#45;&gt;job.service.js -->
<g id="edge7" class="edge">
<title>job.controller.js&#45;&gt;job.service.js</title>
<path fill="none" stroke="black" d="M309.96,-88C332.14,-88 358.07,-88 380.79,-88"/>
<polygon fill="black" stroke="black" points="380.48,-91.5 390.48,-88 380.48,-84.5 380.48,-91.5"/>
</g>
<!-- user.service.js -->
<g id="node14" class="node">
<title>user.service.js</title>
<path fill="none" stroke="black" d="M478,-160C478,-160 400.5,-160 400.5,-160 394.5,-160 388.5,-154 388.5,-148 388.5,-148 388.5,-136 388.5,-136 388.5,-130 394.5,-124 400.5,-124 400.5,-124 478,-124 478,-124 484,-124 490,-130 490,-136 490,-136 490,-148 490,-148 490,-154 484,-160 478,-160"/>
<text xml:space="preserve" text-anchor="middle" x="439.25" y="-136.57" font-family="Arial" font-size="14.00">user.service.js</text>
</g>
<!-- user.controller.js&#45;&gt;user.service.js -->
<g id="edge8" class="edge">
<title>user.controller.js&#45;&gt;user.service.js</title>
<path fill="none" stroke="black" d="M313.87,-142C333.86,-142 356.47,-142 376.88,-142"/>
<polygon fill="black" stroke="black" points="376.77,-145.5 386.77,-142 376.77,-138.5 376.77,-145.5"/>
</g>
<!-- company.service.js -->
<g id="node15" class="node">
<title>company.service.js</title>
<path fill="none" stroke="black" d="M492.62,-214C492.62,-214 385.88,-214 385.88,-214 379.88,-214 373.88,-208 373.88,-202 373.88,-202 373.88,-190 373.88,-190 373.88,-184 379.88,-178 385.88,-178 385.88,-178 492.62,-178 492.62,-178 498.62,-178 504.62,-184 504.62,-190 504.62,-190 504.62,-202 504.62,-202 504.62,-208 498.62,-214 492.62,-214"/>
<text xml:space="preserve" text-anchor="middle" x="439.25" y="-190.57" font-family="Arial" font-size="14.00">company.service.js</text>
</g>
<!-- company.controller.js&#45;&gt;company.service.js -->
<g id="edge9" class="edge">
<title>company.controller.js&#45;&gt;company.service.js</title>
<path fill="none" stroke="black" d="M328.57,-196C339.57,-196 350.97,-196 362.07,-196"/>
<polygon fill="black" stroke="black" points="362,-199.5 372,-196 362,-192.5 362,-199.5"/>
</g>
<!-- application.service.js -->
<g id="node16" class="node">
<title>application.service.js</title>
<path fill="none" stroke="black" d="M497.5,-268C497.5,-268 381,-268 381,-268 375,-268 369,-262 369,-256 369,-256 369,-244 369,-244 369,-238 375,-232 381,-232 381,-232 497.5,-232 497.5,-232 503.5,-232 509.5,-238 509.5,-244 509.5,-244 509.5,-256 509.5,-256 509.5,-262 503.5,-268 497.5,-268"/>
<text xml:space="preserve" text-anchor="middle" x="439.25" y="-244.57" font-family="Arial" font-size="14.00">application.service.js</text>
</g>
<!-- application.controller.js&#45;&gt;application.service.js -->
<g id="edge10" class="edge">
<title>application.controller.js&#45;&gt;application.service.js</title>
<path fill="none" stroke="black" d="M333.25,-250C341.11,-250 349.11,-250 357.03,-250"/>
<polygon fill="black" stroke="black" points="357.01,-253.5 367.01,-250 357.01,-246.5 357.01,-253.5"/>
</g>
<!-- db.js -->
<g id="node18" class="node">
<title>db.js</title>
<path fill="none" stroke="black" d="M604.5,-187C604.5,-187 574.5,-187 574.5,-187 568.5,-187 562.5,-181 562.5,-175 562.5,-175 562.5,-163 562.5,-163 562.5,-157 568.5,-151 574.5,-151 574.5,-151 604.5,-151 604.5,-151 610.5,-151 616.5,-157 616.5,-163 616.5,-163 616.5,-175 616.5,-175 616.5,-181 610.5,-187 604.5,-187"/>
<text xml:space="preserve" text-anchor="middle" x="589.5" y="-163.57" font-family="Arial" font-size="14.00">db.js</text>
</g>
<!-- auth.service.js&#45;&gt;db.js -->
<g id="edge11" class="edge">
<title>auth.service.js&#45;&gt;db.js</title>
<path fill="none" stroke="black" d="M490.51,-46.2C500.07,-49.95 509.55,-54.79 517.5,-61 544.34,-81.95 564.31,-116.02 576.12,-140.28"/>
<polygon fill="black" stroke="black" points="572.93,-141.71 580.33,-149.29 579.27,-138.75 572.93,-141.71"/>
</g>
<!-- job.service.js&#45;&gt;db.js -->
<g id="edge12" class="edge">
<title>job.service.js&#45;&gt;db.js</title>
<path fill="none" stroke="black" d="M486.61,-101.54C497.04,-105.31 507.86,-109.82 517.5,-115 532.07,-122.83 546.83,-133.52 559.1,-143.33"/>
<polygon fill="black" stroke="black" points="556.83,-145.99 566.78,-149.63 561.27,-140.58 556.83,-145.99"/>
</g>
<!-- user.service.js&#45;&gt;db.js -->
<g id="edge13" class="edge">
<title>user.service.js&#45;&gt;db.js</title>
<path fill="none" stroke="black" d="M490.44,-151.14C510.24,-154.75 532.6,-158.82 550.95,-162.16"/>
<polygon fill="black" stroke="black" points="550.14,-165.57 560.6,-163.92 551.39,-158.68 550.14,-165.57"/>
</g>
<!-- company.service.js&#45;&gt;db.js -->
<g id="edge14" class="edge">
<title>company.service.js&#45;&gt;db.js</title>
<path fill="none" stroke="black" d="M504.84,-184.24C520.57,-181.37 536.88,-178.4 550.88,-175.85"/>
<polygon fill="black" stroke="black" points="551.33,-179.33 560.54,-174.09 550.07,-172.44 551.33,-179.33"/>
</g>
<!-- application.service.js&#45;&gt;db.js -->
<g id="edge15" class="edge">
<title>application.service.js&#45;&gt;db.js</title>
<path fill="none" stroke="black" d="M503.44,-231.57C508.39,-229.05 513.15,-226.2 517.5,-223 529.52,-214.14 526.18,-205.74 537.5,-196 541.94,-192.18 547.02,-188.7 552.21,-185.59"/>
<polygon fill="black" stroke="black" points="553.78,-188.72 560.86,-180.84 550.41,-182.59 553.78,-188.72"/>
</g>
<!-- upload.service.js -->
<g id="node17" class="node">
<title>upload.service.js</title>
<path fill="none" stroke="black" d="M485.5,-322C485.5,-322 393,-322 393,-322 387,-322 381,-316 381,-310 381,-310 381,-298 381,-298 381,-292 387,-286 393,-286 393,-286 485.5,-286 485.5,-286 491.5,-286 497.5,-292 497.5,-298 497.5,-298 497.5,-310 497.5,-310 497.5,-316 491.5,-322 485.5,-322"/>
<text xml:space="preserve" text-anchor="middle" x="439.25" y="-298.57" font-family="Arial" font-size="14.00">upload.service.js</text>
</g>
<!-- supabase.js -->
<g id="node19" class="node">
<title>supabase.js</title>
<path fill="none" stroke="black" d="M621.5,-241C621.5,-241 557.5,-241 557.5,-241 551.5,-241 545.5,-235 545.5,-229 545.5,-229 545.5,-217 545.5,-217 545.5,-211 551.5,-205 557.5,-205 557.5,-205 621.5,-205 621.5,-205 627.5,-205 633.5,-211 633.5,-217 633.5,-217 633.5,-229 633.5,-229 633.5,-235 627.5,-241 621.5,-241"/>
<text xml:space="preserve" text-anchor="middle" x="589.5" y="-217.57" font-family="Arial" font-size="14.00">supabase.js</text>
</g>
<!-- upload.service.js&#45;&gt;supabase.js -->
<g id="edge16" class="edge">
<title>upload.service.js&#45;&gt;supabase.js</title>
<path fill="none" stroke="black" d="M497.66,-286.22C504.48,-283.44 511.24,-280.36 517.5,-277 532.07,-269.17 546.83,-258.48 559.1,-248.67"/>
<polygon fill="black" stroke="black" points="561.27,-251.42 566.78,-242.37 556.83,-246.01 561.27,-251.42"/>
</g>
</g>
</svg>
