<svg data-logo="logo" xmlns="http://www.w3.org/2000/svg" viewBox="0 0 201.99000549316406 41" width="201.99000549316406" height="41">
        <g style="opacity: 1;" id="logogram" transform="translate(0, 0.5)&#10;    rotate(0 25 20)"><path d="M43 31L31 40H5L7 35L12 31H29L32 35L40 11L45 7H50L43 31ZM43 5L38 9H21L18 5L10 29L5 33H0L7 9L19 0H45L43 5ZM24 13H35L29 31L26 27H15L21 9L24 13Z" fill="#297AFF"/></g>
        <g style="opacity: 1;" id="logotype" transform="translate(56, 9.5)"><path fill="#ffffff" d="M21.89 22L18.43 22Q16.96 18.39 15.22 14.81Q13.49 11.22 11.50 7.61L11.50 7.61L11.50 22L7.61 22L7.61 0.33L11.07 0.33Q12.05 1.87 13.04 3.68Q14.02 5.48 14.94 7.26Q15.87 9.05 16.66 10.73Q17.45 12.41 18.01 13.67L18.01 13.67L18.01 0.33L21.89 0.33L21.89 22ZM39.60 22L25.70 22L25.70 0.33L38.83 0.33L38.83 3.90L30.01 3.90L30.01 8.77L37.67 8.77L37.67 12.34L30.01 12.34L30.01 18.43L39.60 18.43L39.60 22ZM58.12 22L53.46 22Q52.80 20.21 51.83 18.04Q50.87 15.88 49.82 13.71L49.82 13.71Q48.80 15.77 47.79 17.99Q46.77 20.21 46.04 22L46.04 22L41.38 22Q41.73 21.05 42.42 19.73Q43.10 18.39 43.92 16.86Q44.74 15.31 45.66 13.69Q46.56 12.06 47.41 10.55L47.41 10.55L41.73 0.33L46.39 0.33L49.82 7.26L53.42 0.33L57.77 0.33L52.23 10.45Q53.18 11.95 54.09 13.60Q55 15.24 55.79 16.80Q56.58 18.36 57.17 19.71Q57.77 21.05 58.12 22L58.12 22ZM59.38 0.33L75.13 0.33L75.13 3.90L69.42 3.90L69.42 22L65.08 22L65.08 3.90L59.38 3.90L59.38 0.33ZM87.62 0.33L91.92 0.33L91.92 22L87.62 22L87.62 12.44L81.88 12.44L81.88 22L77.58 22L77.58 0.33L81.88 0.33L81.88 8.87L87.62 8.87L87.62 0.33ZM109.14 22L95.39 22L95.39 18.43L100.11 18.43L100.11 3.90L95.39 3.90L95.39 0.33L109.14 0.33L109.14 3.90L104.45 3.90L104.45 18.43L109.14 18.43L109.14 22ZM118.49 0.09L118.49 0.09Q120.34 0.09 121.85 0.51Q123.36 0.93 124.44 1.80Q125.53 2.68 126.10 4.03Q126.68 5.38 126.68 7.19L126.68 7.19Q126.68 9.08 125.91 10.62Q125.14 12.16 123.36 12.97L123.36 12.97Q123.95 13.88 124.62 14.98Q125.28 16.09 125.91 17.29Q126.54 18.50 127.12 19.71Q127.69 20.91 128.12 22L128.12 22L123.60 22Q122.80 19.90 121.73 17.96Q120.66 16.02 119.44 14.02L119.44 14.02L117.19 14.02L117.19 22L112.89 22L112.89 0.65Q113.52 0.51 114.27 0.39Q115.03 0.26 115.80 0.21Q116.56 0.16 117.27 0.12Q117.97 0.09 118.49 0.09ZM122.31 7.16L122.31 7.16Q122.31 5.44 121.25 4.64Q120.20 3.83 118.49 3.83L118.49 3.83Q118.25 3.83 117.89 3.85Q117.55 3.87 117.19 3.94L117.19 3.94L117.19 10.45L118.14 10.45Q120.34 10.45 121.33 9.59Q122.31 8.73 122.31 7.16ZM144.60 22L130.71 22L130.71 0.33L143.83 0.33L143.83 3.90L135.01 3.90L135.01 8.77L142.68 8.77L142.68 12.34L135.01 12.34L135.01 18.43L144.60 18.43L144.60 22Z"/></g>
        
      </svg>